
      <svg xmlns="http://www.w3.org/2000/svg" version="1.1" style="display: block;" width="2000" height="1000"><polygon stroke-linejoin="round" stroke-miterlimit="1" stroke-width="1" points="2201,721 1725,1099 1910,1099" style="fill:#ffdf37;stroke:#ffdf37;"></polygon><polygon stroke-linejoin="round" stroke-miterlimit="1" stroke-width="1" points="2201,721 1771,333 1725,1099" style="fill:#ffcf2d;stroke:#ffcf2d;"></polygon><polygon stroke-linejoin="round" stroke-miterlimit="1" stroke-width="1" points="2201,411 2178,49 1771,333" style="fill:#ffdc35;stroke:#ffdc35;"></polygon><polygon stroke-linejoin="round" stroke-miterlimit="1" stroke-width="1" points="2201,762 2201,721 1910,1099" style="fill:#fff948;stroke:#fff948;"></polygon><polygon stroke-linejoin="round" stroke-miterlimit="1" stroke-width="1" points="2201,862 2201,762 1910,1099" style="fill:#ffc627;stroke:#ffc627;"></polygon><polygon stroke-linejoin="round" stroke-miterlimit="1" stroke-width="1" points="2201,685 1771,333 2201,721" style="fill:#ffe035;stroke:#ffe035;"></polygon><polygon stroke-linejoin="round" stroke-miterlimit="1" stroke-width="1" points="2201,943 2201,862 1910,1099" style="fill:#ffc627;stroke:#ffc627;"></polygon><polygon stroke-linejoin="round" stroke-miterlimit="1" stroke-width="1" points="2201,943 1910,1099 2197,1099" style="fill:#ffc929;stroke:#ffc929;"></polygon><polygon stroke-linejoin="round" stroke-miterlimit="1" stroke-width="1" points="2201,-2 2060,-101 2178,49" style="fill:#ffc627;stroke:#ffc627;"></polygon><polygon stroke-linejoin="round" stroke-miterlimit="1" stroke-width="1" points="2201,-2 2178,49 2201,411" style="fill:#ffff52;stroke:#ffff52;"></polygon><polygon stroke-linejoin="round" stroke-miterlimit="1" stroke-width="1" points="2201,1099 2201,943 2197,1099" style="fill:#ffff52;stroke:#ffff52;"></polygon><polygon stroke-linejoin="round" stroke-miterlimit="1" stroke-width="1" points="2201,499 1771,333 2201,685" style="fill:#ffd02d;stroke:#ffd02d;"></polygon><polygon stroke-linejoin="round" stroke-miterlimit="1" stroke-width="1" points="2201,499 2201,411 1771,333" style="fill:#ffc627;stroke:#ffc627;"></polygon><polygon stroke-linejoin="round" stroke-miterlimit="1" stroke-width="1" points="2201,-101 2060,-101 2201,-2" style="fill:#ffc627;stroke:#ffc627;"></polygon><polygon stroke-linejoin="round" stroke-miterlimit="1" stroke-width="1" points="2178,49 2060,-101 1771,333" style="fill:#ffdb34;stroke:#ffdb34;"></polygon><polygon stroke-linejoin="round" stroke-miterlimit="1" stroke-width="1" points="2060,-101 1723,-101 1771,333" style="fill:#ffe035;stroke:#ffe035;"></polygon><polygon stroke-linejoin="round" stroke-miterlimit="1" stroke-width="1" points="1771,333 1083,1099 1725,1099" style="fill:#ffce2c;stroke:#ffce2c;"></polygon><polygon stroke-linejoin="round" stroke-miterlimit="1" stroke-width="1" points="1771,333 1520,-101 1001,-101" style="fill:#ffd732;stroke:#ffd732;"></polygon><polygon stroke-linejoin="round" stroke-miterlimit="1" stroke-width="1" points="1771,333 1001,-101 1083,1099" style="fill:#ffd22f;stroke:#ffd22f;"></polygon><polygon stroke-linejoin="round" stroke-miterlimit="1" stroke-width="1" points="1771,333 1521,-101 1520,-101" style="fill:#ffff3d;stroke:#ffff3d;"></polygon><polygon stroke-linejoin="round" stroke-miterlimit="1" stroke-width="1" points="1771,333 1723,-101 1521,-101" style="fill:#fffb3e;stroke:#fffb3e;"></polygon><polygon stroke-linejoin="round" stroke-miterlimit="1" stroke-width="1" points="1083,1099 1001,-101 1001,1099" style="fill:#ffda34;stroke:#ffda34;"></polygon><polygon stroke-linejoin="round" stroke-miterlimit="1" stroke-width="1" points="736,1099 645,-101 327,1099" style="fill:#ffd32f;stroke:#ffd32f;"></polygon><polygon stroke-linejoin="round" stroke-miterlimit="1" stroke-width="1" points="1001,-101 736,1099 1001,1099" style="fill:#ffce2c;stroke:#ffce2c;"></polygon><polygon stroke-linejoin="round" stroke-miterlimit="1" stroke-width="1" points="1001,-101 645,-101 736,1099" style="fill:#ffd732;stroke:#ffd732;"></polygon><polygon stroke-linejoin="round" stroke-miterlimit="1" stroke-width="1" points="645,-101 -199,499 327,1099" style="fill:#ffcb2a;stroke:#ffcb2a;"></polygon><polygon stroke-linejoin="round" stroke-miterlimit="1" stroke-width="1" points="645,-101 -199,444 -199,499" style="fill:#fff143;stroke:#fff143;"></polygon><polygon stroke-linejoin="round" stroke-miterlimit="1" stroke-width="1" points="327,1099 -199,542 250,1099" style="fill:#fff746;stroke:#fff746;"></polygon><polygon stroke-linejoin="round" stroke-miterlimit="1" stroke-width="1" points="327,1099 -199,540 -199,542" style="fill:#ffff73;stroke:#ffff73;"></polygon><polygon stroke-linejoin="round" stroke-miterlimit="1" stroke-width="1" points="327,1099 -199,499 -199,540" style="fill:#ffc627;stroke:#ffc627;"></polygon><polygon stroke-linejoin="round" stroke-miterlimit="1" stroke-width="1" points="645,-101 105,-101 -199,444" style="fill:#ffc627;stroke:#ffc627;"></polygon><polygon stroke-linejoin="round" stroke-miterlimit="1" stroke-width="1" points="250,1099 -199,542 -199,730" style="fill:#ffcf2d;stroke:#ffcf2d;"></polygon><polygon stroke-linejoin="round" stroke-miterlimit="1" stroke-width="1" points="250,1099 -199,730 -199,763" style="fill:#ffc627;stroke:#ffc627;"></polygon><polygon stroke-linejoin="round" stroke-miterlimit="1" stroke-width="1" points="250,1099 -199,763 -199,904" style="fill:#ffc627;stroke:#ffc627;"></polygon><polygon stroke-linejoin="round" stroke-miterlimit="1" stroke-width="1" points="105,-101 -198,-101 -199,444" style="fill:#ffc627;stroke:#ffc627;"></polygon><polygon stroke-linejoin="round" stroke-miterlimit="1" stroke-width="1" points="250,1099 -199,904 -199,943" style="fill:#fff444;stroke:#fff444;"></polygon><polygon stroke-linejoin="round" stroke-miterlimit="1" stroke-width="1" points="250,1099 -199,943 -199,1099" style="fill:#ffcc2b;stroke:#ffcc2b;"></polygon><polygon stroke-linejoin="round" stroke-miterlimit="1" stroke-width="1" points="-198,-101 -199,-101 -199,444" style="fill:#ffc627;stroke:#ffc627;"></polygon></svg>